<svg id="Capa_1" data-name="Capa 1" xmlns="http://www.w3.org/2000/svg" viewBox="0 0 1083.39 1306"><defs><style>.cls-1,.cls-2{fill:#fff;stroke:#999;stroke-miterlimit:10;}.cls-1{stroke-width:6px;}.cls-2{stroke-width:16px;}</style></defs><title>AfterTrees</title><polygon class="cls-1" points="634 1144 634 1010 724 1010 724 1144 814 1144 814 1303 724 1303 724 1229 634 1229 634 1303 544 1303 544 1146 634 1144"/><polygon class="cls-2" points="507.13 431.04 507.13 8 791.26 8 791.26 431.04 1075.39 431.04 1075.39 933 791.26 933 791.26 699.38 507.13 699.38 507.13 933 223 933 223 437.35 507.13 431.04"/><polygon class="cls-1" points="498.55 580.42 498.55 526 535.11 526 535.11 580.42 571.66 580.42 571.66 645 535.11 645 535.11 614.95 498.55 614.95 498.55 645 462 645 462 581.24 498.55 580.42"/><polygon class="cls-1" points="39.55 358.42 39.55 304 76.11 304 76.11 358.42 112.66 358.42 112.66 423 76.11 423 76.11 392.94 39.55 392.94 39.55 423 3 423 3 359.24 39.55 358.42"/><polygon class="cls-1" points="413.33 1073.01 413.33 1036.78 437.67 1036.78 437.67 1073.01 462 1073.01 462 1116 437.67 1116 437.67 1095.99 413.33 1095.99 413.33 1116 389 1116 389 1073.55 413.33 1073.01"/></svg>